<svg width="40" height="40" viewBox="0 0 40 40" fill="none" xmlns="http://www.w3.org/2000/svg">
    <path fill-rule="evenodd" clip-rule="evenodd" d="M2.67754 30.835L13.8472 23.0747L29.9662 26.7546L18.7965 34.5148L2.67752 30.835L2.67749 30.835L2.67749 30.835" fill="#0E88D3"/>
    <path fill-rule="evenodd" clip-rule="evenodd" d="M22.6369 14.178L28.648 10.0017L37.3225 11.9821L31.3115 16.1583L22.6369 14.178Z" fill="#0E88D3"/>
    <path d="M2.67749 12.2478L13.8472 4.48952V23.0764L2.67749 30.8346V12.2478Z" fill="#66CEF5"/>
    <path d="M22.6369 4.17515L28.648 0V10.0026L22.6369 14.1778V4.17515Z" fill="#66CEF5"/>
    <path d="M37.3225 1.97943L28.648 0V10.0026L37.3225 11.9821V1.97943Z" fill="#B2E6FA"/>
    <path d="M13.2522 33.2522L13.1542 40L23.57 25.2907L13.2522 33.2522Z" fill="#66CEF5"/>
    <path fill-rule="evenodd" clip-rule="evenodd" d="M13.8472 4.48952L26.0503 7.27413V11.805L29.9662 12.6979L29.9662 26.7512L29.9662 26.7545L29.9629 26.7538L13.144 40L23.5645 25.2937L13.8472 23.0764V4.48952Z" fill="#B2E6FA"/>
</svg>